<?xml version="1.0" encoding="utf-8"?>
<!-- Generator: Adobe Illustrator 23.0.0, SVG Export Plug-In . SVG Version: 6.00 Build 0)  -->
<svg version="1.1" xmlns="http://www.w3.org/2000/svg" xmlns:xlink="http://www.w3.org/1999/xlink" x="0px" y="0px" width="263.5px"
	 height="20.9px" viewBox="0 0 263.5 20.9" style="enable-background:new 0 0 263.5 20.9;" xml:space="preserve">
<style type="text/css">
	.st0{fill:#F4F4F4;}
	.st1{fill:#F4F4F4;stroke:url(#SVGID_1_);stroke-width:0.9415;stroke-miterlimit:10;}
	.st2{fill:#F4F4F4;stroke:url(#SVGID_2_);stroke-width:0.9415;stroke-miterlimit:10;}
	
		.st3{fill-rule:evenodd;clip-rule:evenodd;fill:#08A5A0;stroke:#214151;stroke-width:0.3046;stroke-linecap:round;stroke-linejoin:round;}
	.st4{fill:#102544;}
	.st5{fill:none;stroke:#102544;stroke-width:4;stroke-linejoin:round;stroke-miterlimit:10;}
	.st6{fill-rule:evenodd;clip-rule:evenodd;fill:#007EB5;stroke:#033668;stroke-linecap:round;stroke-linejoin:round;}
	.st7{fill-rule:evenodd;clip-rule:evenodd;fill:#08669B;stroke:#033668;stroke-linecap:round;stroke-linejoin:round;}
	.st8{fill-rule:evenodd;clip-rule:evenodd;fill:#0195D3;stroke:#033668;stroke-linecap:round;stroke-linejoin:round;}
	.st9{fill-rule:evenodd;clip-rule:evenodd;fill:#99D5ED;stroke:#033668;stroke-linecap:round;stroke-linejoin:round;}
	.st10{fill-rule:evenodd;clip-rule:evenodd;fill:#67BFE5;stroke:#033668;stroke-linecap:round;stroke-linejoin:round;}
	.st11{fill-rule:evenodd;clip-rule:evenodd;fill:#D9EFF8;stroke:#033668;stroke-linecap:round;stroke-linejoin:round;}
	.st12{fill-rule:evenodd;clip-rule:evenodd;fill:#568EC5;stroke:#033668;stroke-linecap:round;stroke-linejoin:round;}
	.st13{fill-rule:evenodd;clip-rule:evenodd;fill:#67BFE5;stroke:#033668;stroke-width:1.1756;stroke-miterlimit:10;}
	.st14{fill:none;stroke:#102544;stroke-width:4.5;stroke-linejoin:round;stroke-miterlimit:10;}
	.st15{opacity:0.3;fill:#F4F4F4;}
	.st16{fill:#FFFFFF;}
	.st17{fill:none;stroke:#8DC63F;stroke-width:0.5;stroke-miterlimit:10;}
	.st18{fill:#6FB1C8;}
	.st19{fill:#8DC63F;}
	.st20{fill:#2C72B7;}
	.st21{fill:none;stroke:#8DC63F;stroke-width:0.4267;stroke-miterlimit:10;}
	.st22{fill:#383838;}
	.st23{fill:#A7CB86;}
	.st24{fill:#0E4D77;}
	.st25{fill:none;stroke:#033668;stroke-width:0.75;stroke-miterlimit:10;}
	.st26{fill:#033668;}
	.st27{fill:#B9D0E7;}
	.st28{filter:url(#Adobe_OpacityMaskFilter);}
	.st29{opacity:0.5;mask:url(#SVGID_447_);}
	.st30{opacity:8.000000e-02;fill:#2C72B7;}
	.st31{fill:#FFFFFF;stroke:#000000;stroke-width:0.3307;stroke-miterlimit:10;}
	.st32{fill:none;stroke:#000000;stroke-width:0.3307;stroke-miterlimit:10;}
	.st33{fill:none;stroke:#033668;stroke-width:0.25;stroke-miterlimit:10;}
	.st34{opacity:5.000000e-02;fill:#007EB5;}
	.st35{fill:#FFFFFF;stroke:#000000;stroke-width:0.25;stroke-miterlimit:10;}
	.st36{fill:#007EB5;}
	.st37{fill:#666666;}
	.st38{filter:url(#Adobe_OpacityMaskFilter_1_);}
	.st39{opacity:0.5;mask:url(#SVGID_448_);}
	.st40{fill:none;stroke:#033668;stroke-width:0.5;stroke-miterlimit:10;}
	.st41{fill:none;stroke:#007F7F;stroke-width:0.25;stroke-miterlimit:10;}
	.st42{fill:#E8E8E8;}
	.st43{fill:#022038;}
	.st44{fill:none;stroke:#000000;stroke-width:0.5;stroke-miterlimit:10;}
	.st45{filter:url(#Adobe_OpacityMaskFilter_2_);}
	.st46{opacity:0.5;mask:url(#SVGID_449_);}
	.st47{filter:url(#Adobe_OpacityMaskFilter_3_);}
	.st48{opacity:0.5;mask:url(#SVGID_450_);}
	.st49{fill:url(#SVGID_451_);}
	.st50{fill:url(#SVGID_452_);}
	.st51{fill:url(#SVGID_453_);}
	.st52{fill:#E57D00;}
	.st53{fill:#D13607;}
	.st54{fill:#42CB00;}
	.st55{fill:none;stroke:#6FB1C8;stroke-width:0.75;stroke-miterlimit:10;}
	.st56{fill-rule:evenodd;clip-rule:evenodd;fill:#F2F2F2;}
	.st57{stroke:#000000;stroke-width:0.25;stroke-miterlimit:10;}
	.st58{opacity:0.15;}
	.st59{opacity:0.6;fill:#FFFFFF;}
	.st60{opacity:0.8;}
	.st61{fill-rule:evenodd;clip-rule:evenodd;fill:#FFFFFF;}
	.st62{fill:url(#SVGID_460_);}
	.st63{opacity:0.8;fill:#FFFFFF;}
	.st64{opacity:0.6;fill:#6FB1C8;}
	.st65{fill:none;stroke:#033668;stroke-miterlimit:10;}
	.st66{fill:none;stroke:#AEE83D;stroke-width:4;stroke-miterlimit:10;}
	.st67{opacity:0.2;}
	.st68{fill:url(#SVGID_461_);}
	.st69{fill:url(#SVGID_462_);}
	.st70{fill:url(#SVGID_463_);}
	.st71{fill:url(#SVGID_464_);}
	.st72{fill:url(#SVGID_465_);}
	.st73{fill:url(#SVGID_466_);}
	.st74{fill:url(#SVGID_467_);}
	.st75{fill:url(#SVGID_468_);}
	.st76{fill:url(#SVGID_469_);}
	.st77{fill:url(#SVGID_470_);}
	.st78{fill:url(#SVGID_471_);}
	.st79{fill:url(#SVGID_472_);}
	.st80{fill:url(#SVGID_473_);}
	.st81{fill:url(#SVGID_474_);}
	.st82{fill:url(#SVGID_475_);}
	.st83{fill:url(#SVGID_476_);}
	.st84{fill:url(#SVGID_477_);}
	.st85{fill:url(#SVGID_478_);}
	.st86{fill:url(#SVGID_479_);}
	.st87{fill:url(#SVGID_480_);}
	.st88{filter:url(#Adobe_OpacityMaskFilter_4_);}
	.st89{opacity:0.5;mask:url(#SVGID_481_);}
	.st90{filter:url(#Adobe_OpacityMaskFilter_5_);}
	.st91{opacity:0.5;mask:url(#SVGID_482_);}
	.st92{filter:url(#Adobe_OpacityMaskFilter_6_);}
	.st93{opacity:0.5;mask:url(#SVGID_483_);}
	.st94{filter:url(#Adobe_OpacityMaskFilter_7_);}
	.st95{opacity:0.5;mask:url(#SVGID_484_);}
	.st96{filter:url(#Adobe_OpacityMaskFilter_8_);}
	.st97{opacity:0.5;mask:url(#SVGID_485_);}
	.st98{fill:url(#SVGID_486_);}
	.st99{fill:url(#SVGID_487_);}
	.st100{fill:url(#SVGID_488_);}
	.st101{fill:url(#SVGID_489_);}
	.st102{fill:url(#SVGID_490_);}
	.st103{fill:url(#SVGID_491_);}
	.st104{fill:url(#SVGID_492_);}
	.st105{fill:url(#SVGID_493_);}
	.st106{fill:url(#SVGID_494_);}
	.st107{fill:url(#SVGID_495_);}
	.st108{fill:url(#SVGID_496_);}
	.st109{fill:url(#SVGID_497_);}
	.st110{fill:url(#SVGID_498_);}
	.st111{fill:url(#SVGID_499_);}
	.st112{fill:url(#SVGID_500_);}
	.st113{fill:url(#SVGID_501_);}
	.st114{fill:url(#SVGID_502_);}
	.st115{fill:url(#SVGID_503_);}
	.st116{fill:url(#SVGID_504_);}
	.st117{fill:url(#SVGID_505_);}
	.st118{fill:url(#SVGID_506_);}
	.st119{fill:url(#SVGID_507_);}
	.st120{fill:url(#SVGID_508_);}
	.st121{fill:url(#SVGID_509_);}
	.st122{fill:url(#SVGID_510_);}
	.st123{fill:url(#SVGID_511_);}
	.st124{fill:url(#SVGID_512_);}
	.st125{fill:url(#SVGID_513_);}
	.st126{fill-rule:evenodd;clip-rule:evenodd;fill:#007EB5;}
	.st127{fill:none;stroke:#3A6E95;stroke-width:1.0245;stroke-miterlimit:10;}
	.st128{fill:#0195D3;}
	.st129{fill:#08669B;}
	.st130{fill-rule:evenodd;clip-rule:evenodd;fill:none;stroke:#0195D3;stroke-width:2.0491;stroke-miterlimit:10;}
	.st131{fill-rule:evenodd;clip-rule:evenodd;fill:#CCCCCC;}
	.st132{fill:#FBB03B;}
	.st133{fill:#CCCCCC;}
	.st134{filter:url(#Adobe_OpacityMaskFilter_9_);}
	.st135{opacity:0.5;mask:url(#SVGID_514_);}
	.st136{fill:#00838B;}
	.st137{filter:url(#Adobe_OpacityMaskFilter_10_);}
	.st138{opacity:0.5;mask:url(#SVGID_515_);}
	.st139{filter:url(#Adobe_OpacityMaskFilter_11_);}
	.st140{opacity:0.5;mask:url(#SVGID_516_);}
	.st141{filter:url(#Adobe_OpacityMaskFilter_12_);}
	.st142{opacity:0.5;mask:url(#SVGID_517_);}
	.st143{filter:url(#Adobe_OpacityMaskFilter_13_);}
	.st144{opacity:0.5;mask:url(#SVGID_518_);}
	.st145{filter:url(#Adobe_OpacityMaskFilter_14_);}
	.st146{opacity:0.5;mask:url(#SVGID_519_);}
	.st147{filter:url(#Adobe_OpacityMaskFilter_15_);}
	.st148{opacity:0.5;mask:url(#SVGID_520_);}
	.st149{filter:url(#Adobe_OpacityMaskFilter_16_);}
	.st150{opacity:0.5;mask:url(#SVGID_521_);}
	.st151{filter:url(#Adobe_OpacityMaskFilter_17_);}
	.st152{opacity:0.5;mask:url(#SVGID_522_);}
	.st153{filter:url(#Adobe_OpacityMaskFilter_18_);}
	.st154{opacity:0.5;mask:url(#SVGID_523_);}
	.st155{filter:url(#Adobe_OpacityMaskFilter_19_);}
	.st156{opacity:0.5;mask:url(#SVGID_524_);}
	.st157{filter:url(#Adobe_OpacityMaskFilter_20_);}
	.st158{opacity:0.5;mask:url(#SVGID_525_);}
	.st159{filter:url(#Adobe_OpacityMaskFilter_21_);}
	.st160{opacity:0.5;mask:url(#SVGID_526_);}
	.st161{filter:url(#Adobe_OpacityMaskFilter_22_);}
	.st162{opacity:0.5;mask:url(#SVGID_527_);}
	.st163{filter:url(#Adobe_OpacityMaskFilter_23_);}
	.st164{opacity:0.5;mask:url(#SVGID_528_);}
	.st165{fill:url(#SVGID_529_);}
	.st166{filter:url(#Adobe_OpacityMaskFilter_24_);}
	.st167{opacity:0.5;mask:url(#SVGID_530_);}
	.st168{filter:url(#Adobe_OpacityMaskFilter_25_);}
	.st169{opacity:0.5;mask:url(#SVGID_531_);}
	.st170{filter:url(#Adobe_OpacityMaskFilter_26_);}
	.st171{opacity:0.5;mask:url(#SVGID_532_);}
	.st172{filter:url(#Adobe_OpacityMaskFilter_27_);}
	.st173{opacity:0.5;mask:url(#SVGID_533_);}
	.st174{filter:url(#Adobe_OpacityMaskFilter_28_);}
	.st175{opacity:0.5;mask:url(#SVGID_534_);}
	.st176{filter:url(#Adobe_OpacityMaskFilter_29_);}
	.st177{opacity:0.5;mask:url(#SVGID_535_);}
	.st178{filter:url(#Adobe_OpacityMaskFilter_30_);}
	.st179{opacity:0.5;mask:url(#SVGID_536_);}
	.st180{filter:url(#Adobe_OpacityMaskFilter_31_);}
	.st181{opacity:0.5;mask:url(#SVGID_537_);}
	.st182{filter:url(#Adobe_OpacityMaskFilter_32_);}
	.st183{opacity:0.5;mask:url(#SVGID_538_);}
	.st184{opacity:5.000000e-02;fill:#387148;}
	.st185{fill:#387148;}
	.st186{filter:url(#Adobe_OpacityMaskFilter_33_);}
	.st187{opacity:0.5;mask:url(#SVGID_539_);}
	.st188{filter:url(#Adobe_OpacityMaskFilter_34_);}
	.st189{opacity:0.5;mask:url(#SVGID_540_);}
	.st190{fill:url(#SVGID_541_);}
	.st191{fill:url(#SVGID_542_);}
	.st192{display:none;}
	.st193{display:inline;}
	.st194{fill:#9EA9B2;}
	.st195{fill:none;stroke:#007F7F;stroke-width:0.2719;stroke-miterlimit:10;}
	.st196{fill:none;stroke:#007F7F;stroke-width:0.2697;stroke-miterlimit:10;}
	.st197{fill:#277C72;}
	.st198{fill:#FFFFFF;stroke:#FFFFFF;stroke-width:0.2472;stroke-miterlimit:10;}
	.st199{fill:none;stroke:#007EB5;stroke-width:0.2719;stroke-miterlimit:10;}
	.st200{fill:none;stroke:#0055B8;stroke-width:0.25;stroke-miterlimit:10;}
	.st201{opacity:0.1;fill:#999999;}
	.st202{fill:#FFFFFF;stroke:#6FB1C8;stroke-width:0.75;stroke-miterlimit:10;}
	.st203{fill:url(#SVGID_543_);}
	.st204{fill:#2859A5;}
	.st205{opacity:5.000000e-02;fill:#2C72B7;}
	.st206{fill:none;stroke:#0055B8;stroke-width:0.5;stroke-miterlimit:10;}
	.st207{fill:none;stroke:#0055B8;stroke-width:0.75;stroke-miterlimit:10;}
	.st208{opacity:0.1;fill:#2C72B7;}
	.st209{fill:url(#SVGID_544_);}
	.st210{fill:url(#SVGID_545_);}
	.st211{fill:url(#SVGID_546_);}
	.st212{fill:url(#SVGID_547_);}
	.st213{fill:url(#SVGID_548_);}
	.st214{fill:url(#SVGID_549_);}
	.st215{fill:url(#SVGID_550_);}
	.st216{fill:url(#SVGID_551_);}
	.st217{fill:url(#SVGID_552_);}
	.st218{fill:none;stroke:#0195D3;stroke-width:0.2719;stroke-miterlimit:10;}
	.st219{fill:none;stroke:#0195D3;stroke-width:0.2697;stroke-miterlimit:10;}
	.st220{fill:none;stroke:#007EB5;stroke-width:0.2422;stroke-miterlimit:10;}
	
		.st221{fill-rule:evenodd;clip-rule:evenodd;fill:#2C72B7;stroke:#214151;stroke-width:0.588;stroke-linecap:round;stroke-linejoin:round;}
	
		.st222{fill-rule:evenodd;clip-rule:evenodd;fill:#275F9A;stroke:#214151;stroke-width:0.588;stroke-linecap:round;stroke-linejoin:round;}
	
		.st223{fill-rule:evenodd;clip-rule:evenodd;fill:#1C4B7D;stroke:#22686B;stroke-width:0.588;stroke-linecap:round;stroke-linejoin:round;}
	.st224{fill-rule:evenodd;clip-rule:evenodd;fill:none;stroke:#FFFFFF;stroke-width:4.3021;stroke-miterlimit:10;}
	.st225{opacity:0.2;fill:#FFFFFF;}
	.st226{opacity:0.5;}
	.st227{fill:none;stroke:#FFFFFF;stroke-width:4.3021;stroke-miterlimit:10;}
	.st228{fill:none;stroke:#569065;stroke-width:0.2719;stroke-miterlimit:10;}
	.st229{fill:none;stroke:#569065;stroke-width:0.2697;stroke-miterlimit:10;}
	.st230{fill:url(#SVGID_557_);}
	.st231{fill:url(#SVGID_558_);}
	.st232{fill:url(#SVGID_559_);}
	.st233{fill:url(#SVGID_560_);}
	.st234{fill:url(#SVGID_561_);}
	.st235{fill:url(#SVGID_562_);}
	.st236{fill:url(#SVGID_563_);}
	.st237{fill:url(#SVGID_564_);}
	.st238{fill:url(#SVGID_565_);}
	.st239{fill:none;stroke:#387148;stroke-width:0.2422;stroke-miterlimit:10;}
	.st240{fill:#FFFFFF;stroke:#007EB5;stroke-width:0.2833;stroke-miterlimit:10;}
	.st241{fill:#FFFFFF;stroke:#007EB5;stroke-width:0.2744;stroke-miterlimit:10;}
	.st242{opacity:0.2;fill:#007EB5;}
	.st243{opacity:0.7;}
	.st244{fill:none;stroke:#2859A5;stroke-width:1.0101;stroke-miterlimit:10;}
	.st245{fill:#EFEEEA;}
	.st246{fill:none;}
	.st247{fill:none;stroke:#4F2AA0;stroke-width:2;stroke-linecap:round;stroke-miterlimit:10;}
	.st248{fill:none;stroke:#0055B8;stroke-width:2;stroke-linecap:round;stroke-miterlimit:10;}
	.st249{fill:none;stroke:#277C72;stroke-width:2;stroke-linecap:round;stroke-miterlimit:10;}
	.st250{fill:none;stroke:#2859A5;stroke-width:0.5;stroke-miterlimit:10;}
	.st251{fill:none;stroke:#2859A5;stroke-miterlimit:10;}
	.st252{fill:#FFFFFF;stroke:#2859A5;stroke-width:1.1284;stroke-miterlimit:10;}
	.st253{opacity:0.5;fill:#8DC63F;}
	.st254{fill:#288700;}
	.st255{fill:#B55200;}
	.st256{fill:#B71A00;}
	.st257{fill:#277C00;}
	.st258{fill:#686D01;}
	.st259{fill:#B23600;}
	.st260{fill:none;stroke:#0055B8;stroke-width:0.2803;stroke-miterlimit:10;}
	.st261{fill:none;stroke:#000000;stroke-miterlimit:10;}
	.st262{fill:#033668;stroke:#000000;stroke-miterlimit:10;}
	.st263{fill:#9E2B8E;}
	.st264{fill:#00AEB7;}
	.st265{opacity:0.6;fill:#00AEB7;}
	.st266{opacity:0.7;fill:#9E2B8E;}
	.st267{fill:none;stroke:#6FB1C8;stroke-width:2;stroke-linecap:round;stroke-miterlimit:10;}
	.st268{fill:none;stroke:#9E2B8E;stroke-width:2;stroke-linecap:round;stroke-miterlimit:10;}
	.st269{fill:#DBDB28;}
	.st270{opacity:0.5;fill:#033668;}
	.st271{opacity:0.6;}
	.st272{opacity:0.7;fill:#DBDB28;}
	.st273{fill:none;stroke:#033668;stroke-width:2;stroke-linecap:round;stroke-miterlimit:10;}
	.st274{fill:none;stroke:#DBDB28;stroke-width:2;stroke-linecap:round;stroke-miterlimit:10;}
	.st275{fill:#B3B3B3;}
	.st276{fill:none;stroke:#000000;stroke-width:4;stroke-miterlimit:10;}
	.st277{fill:none;stroke:#2859A5;stroke-width:1.0096;stroke-miterlimit:10;}
	.st278{fill:none;stroke:#6FB1C8;stroke-miterlimit:10;}
	.st279{fill:#FFFFFF;stroke:#FFFFFF;stroke-width:0.25;stroke-miterlimit:10;}
	.st280{fill:none;stroke:#FFFFFF;stroke-miterlimit:10;}
	.st281{fill:#FFFFFF;stroke:#2859A5;stroke-width:1.0209;stroke-miterlimit:10;}
	.st282{fill:#F5F5F5;}
	.st283{fill:#FFFFFF;stroke:#2859A5;stroke-width:1.0939;stroke-miterlimit:10;}
	.st284{fill:#67A8BA;}
	.st285{fill:#86C1D1;}
	.st286{fill:#A542A0;}
	.st287{fill:#B75AAE;}
	.st288{fill:#C6C122;}
	.st289{fill:#B7B323;}
	.st290{fill:#19547C;}
	.st291{fill:#336B91;}
	.st292{fill:#3985AF;}
	.st293{fill:#67BFE5;}
	.st294{fill:#6AA87D;}
	.st295{fill:#569065;}
	.st296{fill:#79C693;}
	.st297{fill:none;stroke:#0195D3;stroke-miterlimit:10;}
	.st298{fill:none;stroke:#387148;stroke-miterlimit:10;}
	.st299{opacity:0.5;fill:none;stroke:#0195D3;stroke-width:1.0299;stroke-miterlimit:10;}
	.st300{opacity:0.2;fill:#569065;}
	.st301{opacity:0.5;fill:none;stroke:#569065;stroke-width:1.0299;stroke-miterlimit:10;}
	.st302{fill:none;stroke:#FFFFFF;stroke-width:0.8869;stroke-miterlimit:10;}
	.st303{fill:none;stroke:#2C72B7;stroke-width:2;stroke-miterlimit:10;}
	.st304{opacity:0.1;fill:#79C693;}
	.st305{fill:none;stroke:#387148;stroke-width:2;stroke-miterlimit:10;}
	.st306{opacity:0.1;fill:#666666;}
	.st307{fill:none;stroke:#000000;stroke-width:2;stroke-miterlimit:10;}
	.st308{fill:#FFFFFF;stroke:#569065;stroke-miterlimit:10;}
	.st309{fill:#FFFFFF;stroke:#569065;stroke-width:2.0835;stroke-miterlimit:10;}
	.st310{fill:#FFFFFF;stroke:#0195D3;stroke-width:1.0706;stroke-miterlimit:10;}
	.st311{fill:#FFFFFF;stroke:#0195D3;stroke-width:2.15;stroke-miterlimit:10;}
	.st312{display:none;fill:#6AA87D;}
	.st313{display:none;fill:#387148;}
	.st314{display:none;fill:#FFFFFF;}
	.st315{opacity:0.6;fill:none;stroke:#0195D3;stroke-width:0.4222;stroke-miterlimit:10;}
	.st316{opacity:0.2;fill:#387148;}
	.st317{opacity:0.6;fill:none;stroke:#387148;stroke-width:0.4222;stroke-miterlimit:10;}
	.st318{opacity:0.7;fill:#094B6E;}
	.st319{opacity:0.7;fill:#2C72B7;}
	.st320{opacity:0.7;fill:#3985AF;}
	.st321{fill:#808080;}
	.st322{fill:none;stroke:#B3B3B3;stroke-miterlimit:10;}
	.st323{opacity:0.5;fill:none;stroke:#3D7399;stroke-miterlimit:10;}
	.st324{opacity:5.000000e-02;fill:#3985AF;}
	.st325{fill:#FFFFFF;stroke:#B3B3B3;stroke-miterlimit:10;}
	.st326{opacity:0.6;fill:#2C72B7;}
	.st327{opacity:0.6;fill:#033668;}
	.st328{opacity:0.9;fill:#67BFE5;}
	.st329{stroke:#000000;stroke-width:0.5;stroke-miterlimit:10;}
	.st330{opacity:0.2;fill:#666666;}
	.st331{opacity:0.1;fill:#67BFE5;}
	.st332{fill:none;stroke:#0195D3;stroke-width:2;stroke-miterlimit:10;}
	.st333{fill:#FFFFFF;stroke:#2859A5;stroke-width:1.0221;stroke-miterlimit:10;}
	.st334{opacity:0.6;fill:#67BFE5;}
	.st335{opacity:0.6;fill:#0195D3;}
	.st336{opacity:0.6;fill:#3985AF;}
	.st337{fill:#D9EFF8;}
	.st338{fill:#FFFFFF;stroke:#37AFB5;stroke-miterlimit:10;}
	.st339{fill:#FFFFFF;stroke:#0195D3;stroke-miterlimit:10;}
	.st340{opacity:0.35;fill:#C8CCCE;}
	.st341{opacity:6.000000e-02;}
	
		.st342{fill-rule:evenodd;clip-rule:evenodd;fill:#0195D3;stroke:#214151;stroke-width:0.588;stroke-linecap:round;stroke-linejoin:round;}
	
		.st343{fill-rule:evenodd;clip-rule:evenodd;fill:#3985AF;stroke:#22686B;stroke-width:0.588;stroke-linecap:round;stroke-linejoin:round;}
	
		.st344{fill-rule:evenodd;clip-rule:evenodd;fill:#67BFE5;stroke:#214151;stroke-width:0.588;stroke-linecap:round;stroke-linejoin:round;}
	.st345{opacity:0.9;fill:#F2F2F2;}
	.st346{fill:#F2F2F2;stroke:#2C72B7;stroke-width:0.5;stroke-miterlimit:10;}
	.st347{display:inline;opacity:0.3;}
	.st348{display:inline;fill:#08A5A0;}
	.st349{display:inline;fill:#0A7C76;}
	.st350{display:inline;fill:#08605B;}
	.st351{display:inline;fill:#D9F9F6;}
</style>
<g id="background">
</g>
<g id="Map">
</g>
<g id="Header">
</g>
<g id="filter_x5F_mobile">
</g>
<g id="footer">
</g>
<g id="Layer_1">
</g>
<g id="precision_indicators" class="st192">
</g>
<g id="infobuttons" class="st192">
</g>
<g id="Precision_Dots">
</g>
<g id="Pop-ups">
</g>
<g id="modals">
	<g>
		<g>
			<path class="st16" d="M0,0.8h2.8v19.6H0V0.8z"/>
			<path class="st16" d="M22.9,18v2.4H8.7V0.8h13.8v2.4h-11v6h9.8v2.4h-9.8V18H22.9z"/>
			<path class="st16" d="M28.9,20c-1.4-0.5-2.5-1.1-3.2-1.8l1-2.2c0.7,0.7,1.7,1.2,2.9,1.6c1.2,0.4,2.4,0.6,3.6,0.6
				c1.6,0,2.8-0.3,3.6-0.8c0.8-0.6,1.2-1.3,1.2-2.2c0-0.7-0.2-1.2-0.7-1.6c-0.4-0.4-1-0.7-1.6-1c-0.6-0.2-1.6-0.5-2.7-0.8
				c-1.5-0.4-2.7-0.7-3.6-1.1c-0.9-0.4-1.7-0.9-2.3-1.6c-0.6-0.7-1-1.7-1-3c0-1,0.3-2,0.8-2.8c0.6-0.8,1.4-1.5,2.5-2
				c1.1-0.5,2.5-0.8,4.2-0.8c1.2,0,2.3,0.1,3.4,0.4c1.1,0.3,2.1,0.7,2.9,1.3L39,4.6c-0.8-0.5-1.7-0.9-2.6-1.2
				C35.4,3.1,34.5,3,33.6,3c-1.6,0-2.8,0.3-3.6,0.9c-0.8,0.6-1.2,1.3-1.2,2.2c0,0.7,0.2,1.2,0.7,1.6s1,0.7,1.7,1
				c0.7,0.2,1.6,0.5,2.7,0.7c1.5,0.4,2.7,0.7,3.6,1.1c0.9,0.4,1.7,0.9,2.3,1.6s1,1.7,1,2.9c0,1-0.3,2-0.8,2.8
				c-0.6,0.8-1.4,1.5-2.5,2c-1.1,0.5-2.5,0.7-4.2,0.7C31.7,20.6,30.3,20.4,28.9,20z"/>
		</g>
		<g>
			<path class="st16" d="M85.7,0.8v19.6h-2.3L71.7,5.8v14.6h-2.8V0.8h2.3l11.8,14.6V0.8H85.7z"/>
			<path class="st16" d="M95.1,19.3c-1.6-0.9-2.8-2.1-3.7-3.6c-0.9-1.5-1.3-3.2-1.3-5.1s0.4-3.6,1.3-5.1c0.9-1.5,2.1-2.7,3.7-3.6
				c1.6-0.9,3.4-1.3,5.3-1.3c1.5,0,2.9,0.3,4.2,0.8c1.3,0.5,2.4,1.3,3.2,2.3L106,5.4c-1.5-1.5-3.3-2.3-5.5-2.3c-1.5,0-2.8,0.3-3.9,1
				c-1.2,0.7-2.1,1.6-2.8,2.7c-0.7,1.1-1,2.4-1,3.8c0,1.4,0.3,2.7,1,3.9c0.7,1.1,1.6,2,2.8,2.7c1.2,0.7,2.5,1,3.9,1
				c2.2,0,4-0.8,5.5-2.4l1.8,1.8c-0.9,1-2,1.8-3.3,2.3c-1.3,0.5-2.7,0.8-4.2,0.8C98.4,20.6,96.6,20.2,95.1,19.3z"/>
			<path class="st16" d="M126.1,18v2.4h-14.2V0.8h13.8v2.4h-11v6h9.8v2.4h-9.8V18H126.1z"/>
			<path class="st16" d="M132,20c-1.4-0.5-2.5-1.1-3.2-1.8l1-2.2c0.7,0.7,1.7,1.2,2.9,1.6c1.2,0.4,2.4,0.6,3.6,0.6
				c1.6,0,2.8-0.3,3.6-0.8c0.8-0.6,1.2-1.3,1.2-2.2c0-0.7-0.2-1.2-0.7-1.6c-0.4-0.4-1-0.7-1.6-1c-0.6-0.2-1.6-0.5-2.7-0.8
				c-1.5-0.4-2.7-0.7-3.6-1.1c-0.9-0.4-1.7-0.9-2.3-1.6c-0.6-0.7-1-1.7-1-3c0-1,0.3-2,0.8-2.8c0.6-0.8,1.4-1.5,2.5-2
				c1.1-0.5,2.5-0.8,4.2-0.8c1.2,0,2.3,0.1,3.4,0.4c1.1,0.3,2.1,0.7,2.9,1.3l-0.9,2.2c-0.8-0.5-1.7-0.9-2.6-1.2
				c-0.9-0.3-1.8-0.4-2.7-0.4c-1.6,0-2.8,0.3-3.6,0.9c-0.8,0.6-1.2,1.3-1.2,2.2c0,0.7,0.2,1.2,0.7,1.6s1,0.7,1.7,1
				c0.7,0.2,1.6,0.5,2.7,0.7c1.5,0.4,2.7,0.7,3.6,1.1c0.9,0.4,1.7,0.9,2.3,1.6s1,1.7,1,2.9c0,1-0.3,2-0.8,2.8
				c-0.6,0.8-1.4,1.5-2.5,2c-1.1,0.5-2.5,0.7-4.2,0.7C134.8,20.6,133.4,20.4,132,20z"/>
		</g>
		<g>
			<path class="st16" d="M161.2,1v8h-1.5l-4-4.9V9h-1.8V1h1.5l4,4.9V1H161.2z"/>
			<path class="st16" d="M167.2,3.4c0.5,0.5,0.8,1.1,0.8,2.1V9h-1.7V8.3c-0.3,0.6-1,0.9-1.9,0.9c-0.5,0-0.9-0.1-1.2-0.2
				c-0.3-0.2-0.6-0.4-0.8-0.7c-0.2-0.3-0.3-0.6-0.3-1c0-0.6,0.2-1,0.6-1.4s1.1-0.5,2-0.5h1.4c0-0.4-0.1-0.7-0.4-0.9
				c-0.2-0.2-0.6-0.3-1.1-0.3c-0.3,0-0.7,0.1-1,0.2c-0.3,0.1-0.6,0.2-0.8,0.4l-0.6-1.2c0.3-0.2,0.7-0.4,1.2-0.6
				c0.5-0.1,1-0.2,1.5-0.2C165.9,2.8,166.7,3,167.2,3.4z M165.7,7.7c0.2-0.1,0.4-0.3,0.5-0.6V6.4h-1.2c-0.7,0-1.1,0.2-1.1,0.7
				c0,0.2,0.1,0.4,0.3,0.5c0.2,0.1,0.4,0.2,0.7,0.2C165.2,7.9,165.4,7.8,165.7,7.7z"/>
			<path class="st16" d="M173.1,8.7c-0.2,0.1-0.4,0.2-0.6,0.3c-0.3,0.1-0.5,0.1-0.8,0.1c-0.7,0-1.3-0.2-1.7-0.6
				c-0.4-0.4-0.6-0.9-0.6-1.7V4.4h-1V3h1V1.5h1.8V3h1.5v1.4h-1.5v2.5c0,0.3,0.1,0.5,0.2,0.6c0.1,0.1,0.3,0.2,0.6,0.2
				c0.3,0,0.5-0.1,0.7-0.2L173.1,8.7z"/>
			<path class="st16" d="M173.7,1.7c-0.2-0.2-0.3-0.4-0.3-0.7c0-0.3,0.1-0.5,0.3-0.7s0.5-0.3,0.8-0.3c0.3,0,0.6,0.1,0.8,0.3
				c0.2,0.2,0.3,0.4,0.3,0.7c0,0.3-0.1,0.5-0.3,0.7c-0.2,0.2-0.5,0.3-0.8,0.3C174.2,2,173.9,1.9,173.7,1.7z M173.6,2.9h1.8V9h-1.8
				V2.9z"/>
			<path class="st16" d="M177.8,8.7c-0.5-0.3-0.9-0.6-1.2-1.1s-0.4-1-0.4-1.6c0-0.6,0.1-1.2,0.4-1.6s0.7-0.9,1.2-1.1
				c0.5-0.3,1.1-0.4,1.7-0.4c0.6,0,1.2,0.1,1.7,0.4c0.5,0.3,0.9,0.6,1.2,1.1c0.3,0.5,0.4,1,0.4,1.6c0,0.6-0.1,1.2-0.4,1.6
				c-0.3,0.5-0.7,0.9-1.2,1.1c-0.5,0.3-1.1,0.4-1.7,0.4C178.9,9.1,178.3,9,177.8,8.7z M180.7,7.2c0.3-0.3,0.4-0.7,0.4-1.2
				S181,5,180.7,4.7c-0.3-0.3-0.7-0.5-1.1-0.5s-0.8,0.2-1.1,0.5C178.1,5,178,5.4,178,5.9s0.1,0.9,0.4,1.2c0.3,0.3,0.7,0.5,1.1,0.5
				S180.4,7.5,180.7,7.2z"/>
			<path class="st16" d="M189.3,3.5c0.5,0.5,0.7,1.1,0.7,2V9h-1.8V5.8c0-0.5-0.1-0.9-0.3-1.1c-0.2-0.2-0.5-0.4-0.9-0.4
				c-0.5,0-0.8,0.1-1.1,0.4c-0.3,0.3-0.4,0.7-0.4,1.2V9h-1.8V2.9h1.7v0.7c0.2-0.3,0.5-0.5,0.9-0.6c0.4-0.1,0.7-0.2,1.2-0.2
				C188.2,2.8,188.8,3,189.3,3.5z"/>
			<path class="st16" d="M195.8,3.4c0.5,0.5,0.8,1.1,0.8,2.1V9h-1.7V8.3c-0.3,0.6-1,0.9-1.9,0.9c-0.5,0-0.9-0.1-1.2-0.2
				c-0.3-0.2-0.6-0.4-0.8-0.7c-0.2-0.3-0.3-0.6-0.3-1c0-0.6,0.2-1,0.6-1.4s1.1-0.5,2-0.5h1.4c0-0.4-0.1-0.7-0.4-0.9
				c-0.2-0.2-0.6-0.3-1.1-0.3c-0.3,0-0.7,0.1-1,0.2c-0.3,0.1-0.6,0.2-0.8,0.4L191,3.5c0.3-0.2,0.7-0.4,1.2-0.6
				c0.5-0.1,1-0.2,1.5-0.2C194.6,2.8,195.3,3,195.8,3.4z M194.3,7.7c0.2-0.1,0.4-0.3,0.5-0.6V6.4h-1.2c-0.7,0-1.1,0.2-1.1,0.7
				c0,0.2,0.1,0.4,0.3,0.5c0.2,0.1,0.4,0.2,0.7,0.2C193.8,7.9,194.1,7.8,194.3,7.7z"/>
			<path class="st16" d="M197.8,0.5h1.8V9h-1.8V0.5z"/>
			<path class="st16" d="M205.3,8.6c-0.7-0.4-1.2-0.8-1.6-1.5c-0.4-0.6-0.6-1.3-0.6-2.1s0.2-1.5,0.6-2.1c0.4-0.6,0.9-1.1,1.6-1.5
				c0.7-0.4,1.4-0.5,2.2-0.5c0.7,0,1.3,0.1,1.9,0.4s1,0.6,1.4,1.1l-1.2,1.1c-0.5-0.6-1.2-0.9-2-0.9c-0.5,0-0.9,0.1-1.3,0.3
				c-0.4,0.2-0.7,0.5-0.9,0.9c-0.2,0.4-0.3,0.8-0.3,1.3s0.1,0.9,0.3,1.3c0.2,0.4,0.5,0.7,0.9,0.9c0.4,0.2,0.8,0.3,1.3,0.3
				c0.8,0,1.5-0.3,2-1l1.2,1.1c-0.4,0.5-0.9,0.8-1.4,1.1c-0.6,0.2-1.2,0.4-1.9,0.4C206.7,9.2,206,9,205.3,8.6z"/>
			<path class="st16" d="M217.3,6.4h-4.7c0.1,0.4,0.3,0.7,0.6,0.9s0.7,0.3,1.2,0.3c0.3,0,0.6,0,0.9-0.1s0.5-0.2,0.7-0.5l1,1
				c-0.6,0.7-1.4,1-2.5,1c-0.7,0-1.3-0.1-1.8-0.4c-0.5-0.3-0.9-0.6-1.2-1.1s-0.4-1-0.4-1.6c0-0.6,0.1-1.1,0.4-1.6
				c0.3-0.5,0.7-0.9,1.2-1.1c0.5-0.3,1.1-0.4,1.7-0.4c0.6,0,1.2,0.1,1.6,0.4c0.5,0.3,0.9,0.6,1.2,1.1c0.3,0.5,0.4,1,0.4,1.7
				C217.3,6,217.3,6.1,217.3,6.4z M213.1,4.5c-0.3,0.2-0.4,0.5-0.5,0.9h3c-0.1-0.4-0.2-0.7-0.5-0.9c-0.3-0.2-0.6-0.3-1-0.3
				C213.7,4.1,213.4,4.2,213.1,4.5z"/>
			<path class="st16" d="M223.7,3.5c0.5,0.5,0.7,1.1,0.7,2V9h-1.8V5.8c0-0.5-0.1-0.9-0.3-1.1c-0.2-0.2-0.5-0.4-0.9-0.4
				c-0.5,0-0.8,0.1-1.1,0.4C220,5,219.8,5.4,219.8,6V9h-1.8V2.9h1.7v0.7c0.2-0.3,0.5-0.5,0.9-0.6c0.4-0.1,0.7-0.2,1.2-0.2
				C222.6,2.8,223.2,3,223.7,3.5z"/>
			<path class="st16" d="M229.5,8.7c-0.2,0.1-0.4,0.2-0.6,0.3c-0.3,0.1-0.5,0.1-0.8,0.1c-0.7,0-1.3-0.2-1.7-0.6
				c-0.4-0.4-0.6-0.9-0.6-1.7V4.4h-1V3h1V1.5h1.8V3h1.5v1.4h-1.5v2.5c0,0.3,0.1,0.5,0.2,0.6c0.1,0.1,0.3,0.2,0.6,0.2
				c0.3,0,0.5-0.1,0.7-0.2L229.5,8.7z"/>
			<path class="st16" d="M235.9,6.4h-4.7c0.1,0.4,0.3,0.7,0.6,0.9s0.7,0.3,1.2,0.3c0.3,0,0.6,0,0.9-0.1s0.5-0.2,0.7-0.5l1,1
				c-0.6,0.7-1.4,1-2.5,1c-0.7,0-1.3-0.1-1.8-0.4c-0.5-0.3-0.9-0.6-1.2-1.1s-0.4-1-0.4-1.6c0-0.6,0.1-1.1,0.4-1.6
				c0.3-0.5,0.7-0.9,1.2-1.1c0.5-0.3,1.1-0.4,1.7-0.4c0.6,0,1.2,0.1,1.6,0.4c0.5,0.3,0.9,0.6,1.2,1.1c0.3,0.5,0.4,1,0.4,1.7
				C235.9,6,235.9,6.1,235.9,6.4z M231.7,4.5c-0.3,0.2-0.4,0.5-0.5,0.9h3c-0.1-0.4-0.2-0.7-0.5-0.9c-0.3-0.2-0.6-0.3-1-0.3
				C232.3,4.1,232,4.2,231.7,4.5z"/>
			<path class="st16" d="M239.2,3c0.4-0.2,0.8-0.2,1.3-0.2v1.7c-0.2,0-0.3,0-0.4,0c-0.5,0-0.9,0.1-1.2,0.4c-0.3,0.3-0.4,0.7-0.4,1.3
				V9h-1.8V2.9h1.7v0.8C238.6,3.4,238.9,3.1,239.2,3z"/>
			<path class="st16" d="M245.9,3h1.6v1.4h-1.5V9h-1.8V4.4h-1V3h1V2.7c0-0.7,0.2-1.3,0.6-1.7c0.4-0.4,1-0.6,1.8-0.6
				c0.3,0,0.5,0,0.8,0.1c0.2,0.1,0.4,0.1,0.6,0.2l-0.5,1.3c-0.2-0.1-0.4-0.2-0.7-0.2c-0.5,0-0.8,0.3-0.8,0.9V3z"/>
			<path class="st16" d="M249,8.7c-0.5-0.3-0.9-0.6-1.2-1.1s-0.4-1-0.4-1.6c0-0.6,0.1-1.2,0.4-1.6s0.7-0.9,1.2-1.1
				c0.5-0.3,1.1-0.4,1.7-0.4c0.6,0,1.2,0.1,1.7,0.4c0.5,0.3,0.9,0.6,1.2,1.1c0.3,0.5,0.4,1,0.4,1.6c0,0.6-0.1,1.2-0.4,1.6
				c-0.3,0.5-0.7,0.9-1.2,1.1c-0.5,0.3-1.1,0.4-1.7,0.4C250.1,9.1,249.5,9,249,8.7z M251.9,7.2c0.3-0.3,0.4-0.7,0.4-1.2
				s-0.1-0.9-0.4-1.2c-0.3-0.3-0.7-0.5-1.1-0.5s-0.8,0.2-1.1,0.5c-0.3,0.3-0.4,0.7-0.4,1.2s0.1,0.9,0.4,1.2c0.3,0.3,0.7,0.5,1.1,0.5
				S251.6,7.5,251.9,7.2z"/>
			<path class="st16" d="M257.4,3c0.4-0.2,0.8-0.2,1.3-0.2v1.7c-0.2,0-0.3,0-0.4,0c-0.5,0-0.9,0.1-1.2,0.4c-0.3,0.3-0.4,0.7-0.4,1.3
				V9h-1.8V2.9h1.7v0.8C256.8,3.4,257.1,3.1,257.4,3z"/>
			<path class="st16" d="M160,19.3v1.5h-6.2v-8h6.1v1.5h-4.2V16h3.7v1.4h-3.7v1.9H160z"/>
			<path class="st16" d="M167.2,12.3v8.5h-1.7v-0.7c-0.4,0.5-1.1,0.8-1.9,0.8c-0.6,0-1.1-0.1-1.6-0.4s-0.8-0.6-1.1-1.1
				s-0.4-1-0.4-1.7c0-0.6,0.1-1.2,0.4-1.7s0.6-0.9,1.1-1.1c0.5-0.3,1-0.4,1.6-0.4c0.8,0,1.4,0.2,1.8,0.7v-3H167.2z M165,18.9
				c0.3-0.3,0.4-0.7,0.4-1.2s-0.1-0.9-0.4-1.2c-0.3-0.3-0.7-0.5-1.1-0.5c-0.5,0-0.8,0.2-1.1,0.5c-0.3,0.3-0.4,0.7-0.4,1.2
				s0.1,0.9,0.4,1.2c0.3,0.3,0.7,0.5,1.1,0.5C164.3,19.4,164.7,19.3,165,18.9z"/>
			<path class="st16" d="M174.6,14.6v6.2h-1.7v-0.7c-0.2,0.3-0.5,0.5-0.8,0.6c-0.3,0.1-0.7,0.2-1.1,0.2c-0.8,0-1.5-0.2-1.9-0.7
				c-0.5-0.5-0.7-1.2-0.7-2.1v-3.5h1.8v3.2c0,1,0.4,1.5,1.2,1.5c0.4,0,0.8-0.1,1-0.4c0.3-0.3,0.4-0.7,0.4-1.2v-3.1H174.6z"/>
			<path class="st16" d="M177,20.5c-0.5-0.3-0.9-0.6-1.2-1.1c-0.3-0.5-0.4-1-0.4-1.6c0-0.6,0.1-1.2,0.4-1.6c0.3-0.5,0.7-0.9,1.2-1.1
				c0.5-0.3,1.1-0.4,1.8-0.4c0.6,0,1.2,0.1,1.7,0.4c0.5,0.3,0.8,0.7,1.1,1.2l-1.4,0.7c-0.3-0.6-0.8-0.8-1.4-0.8
				c-0.5,0-0.9,0.2-1.2,0.5c-0.3,0.3-0.5,0.7-0.5,1.3c0,0.5,0.2,0.9,0.5,1.2c0.3,0.3,0.7,0.5,1.2,0.5c0.6,0,1.1-0.3,1.4-0.8l1.4,0.8
				c-0.2,0.5-0.6,0.9-1.1,1.1c-0.5,0.3-1.1,0.4-1.7,0.4C178.1,20.9,177.5,20.7,177,20.5z"/>
			<path class="st16" d="M186.8,15.2c0.5,0.5,0.8,1.1,0.8,2.1v3.5h-1.7V20c-0.3,0.6-1,0.9-1.9,0.9c-0.5,0-0.9-0.1-1.2-0.2
				c-0.3-0.2-0.6-0.4-0.8-0.7c-0.2-0.3-0.3-0.6-0.3-1c0-0.6,0.2-1,0.6-1.4s1.1-0.5,2-0.5h1.4c0-0.4-0.1-0.7-0.4-0.9
				c-0.2-0.2-0.6-0.3-1.1-0.3c-0.3,0-0.7,0.1-1,0.2c-0.3,0.1-0.6,0.2-0.8,0.4l-0.6-1.2c0.3-0.2,0.7-0.4,1.2-0.6
				c0.5-0.1,1-0.2,1.5-0.2C185.5,14.5,186.3,14.8,186.8,15.2z M185.3,19.5c0.2-0.1,0.4-0.3,0.5-0.6v-0.6h-1.2
				c-0.7,0-1.1,0.2-1.1,0.7c0,0.2,0.1,0.4,0.3,0.5c0.2,0.1,0.4,0.2,0.7,0.2C184.8,19.7,185,19.6,185.3,19.5z"/>
			<path class="st16" d="M192.7,20.5c-0.2,0.1-0.4,0.2-0.6,0.3c-0.3,0.1-0.5,0.1-0.8,0.1c-0.7,0-1.3-0.2-1.7-0.6
				c-0.4-0.4-0.6-0.9-0.6-1.7v-2.5h-1v-1.4h1v-1.5h1.8v1.5h1.5v1.4h-1.5v2.5c0,0.3,0.1,0.5,0.2,0.6c0.1,0.1,0.3,0.2,0.6,0.2
				c0.3,0,0.5-0.1,0.7-0.2L192.7,20.5z"/>
			<path class="st16" d="M193.3,13.5c-0.2-0.2-0.3-0.4-0.3-0.7c0-0.3,0.1-0.5,0.3-0.7s0.5-0.3,0.8-0.3c0.3,0,0.6,0.1,0.8,0.3
				c0.2,0.2,0.3,0.4,0.3,0.7c0,0.3-0.1,0.5-0.3,0.7c-0.2,0.2-0.5,0.3-0.8,0.3C193.8,13.8,193.5,13.7,193.3,13.5z M193.2,14.6h1.8
				v6.2h-1.8V14.6z"/>
			<path class="st16" d="M197.4,20.5c-0.5-0.3-0.9-0.6-1.2-1.1s-0.4-1-0.4-1.6c0-0.6,0.1-1.2,0.4-1.6s0.7-0.9,1.2-1.1
				c0.5-0.3,1.1-0.4,1.7-0.4c0.6,0,1.2,0.1,1.7,0.4c0.5,0.3,0.9,0.6,1.2,1.1c0.3,0.5,0.4,1,0.4,1.6c0,0.6-0.1,1.2-0.4,1.6
				c-0.3,0.5-0.7,0.9-1.2,1.1c-0.5,0.3-1.1,0.4-1.7,0.4C198.5,20.9,197.9,20.7,197.4,20.5z M200.3,18.9c0.3-0.3,0.4-0.7,0.4-1.2
				s-0.1-0.9-0.4-1.2c-0.3-0.3-0.7-0.5-1.1-0.5s-0.8,0.2-1.1,0.5c-0.3,0.3-0.4,0.7-0.4,1.2s0.1,0.9,0.4,1.2c0.3,0.3,0.7,0.5,1.1,0.5
				S200,19.3,200.3,18.9z"/>
			<path class="st16" d="M208.9,15.2c0.5,0.5,0.7,1.1,0.7,2v3.5h-1.8v-3.3c0-0.5-0.1-0.9-0.3-1.1c-0.2-0.2-0.5-0.4-0.9-0.4
				c-0.5,0-0.8,0.1-1.1,0.4c-0.3,0.3-0.4,0.7-0.4,1.2v3.1h-1.8v-6.2h1.7v0.7c0.2-0.3,0.5-0.5,0.9-0.6c0.4-0.1,0.7-0.2,1.2-0.2
				C207.8,14.5,208.4,14.8,208.9,15.2z"/>
			<path class="st16" d="M214.5,20.7c-0.6-0.2-1.1-0.4-1.4-0.7l0.6-1.4c0.3,0.3,0.8,0.5,1.2,0.6c0.5,0.2,0.9,0.2,1.4,0.2
				c0.5,0,0.9-0.1,1.2-0.2c0.3-0.2,0.4-0.4,0.4-0.6c0-0.2-0.1-0.3-0.2-0.5s-0.3-0.2-0.6-0.3c-0.2-0.1-0.5-0.2-0.9-0.3
				c-0.6-0.1-1.1-0.3-1.5-0.4s-0.7-0.4-1-0.7c-0.3-0.3-0.4-0.7-0.4-1.3c0-0.5,0.1-0.9,0.4-1.3c0.3-0.4,0.6-0.7,1.1-0.9
				s1.1-0.3,1.9-0.3c0.5,0,1,0.1,1.5,0.2c0.5,0.1,0.9,0.3,1.3,0.5l-0.6,1.4c-0.7-0.4-1.5-0.6-2.2-0.6c-0.5,0-0.9,0.1-1.2,0.3
				c-0.2,0.2-0.4,0.4-0.4,0.7c0,0.3,0.1,0.5,0.4,0.6c0.3,0.1,0.7,0.3,1.3,0.4c0.6,0.1,1.1,0.3,1.5,0.4c0.4,0.1,0.7,0.4,1,0.7
				c0.3,0.3,0.4,0.7,0.4,1.3c0,0.5-0.1,0.9-0.4,1.3s-0.6,0.7-1.2,0.9s-1.1,0.3-1.9,0.3C215.7,20.9,215.1,20.8,214.5,20.7z"/>
			<path class="st16" d="M224.4,20.5c-0.2,0.1-0.4,0.2-0.6,0.3c-0.3,0.1-0.5,0.1-0.8,0.1c-0.7,0-1.3-0.2-1.7-0.6
				c-0.4-0.4-0.6-0.9-0.6-1.7v-2.5h-1v-1.4h1v-1.5h1.8v1.5h1.5v1.4h-1.5v2.5c0,0.3,0.1,0.5,0.2,0.6c0.1,0.1,0.3,0.2,0.6,0.2
				c0.3,0,0.5-0.1,0.7-0.2L224.4,20.5z"/>
			<path class="st16" d="M229.6,15.2c0.5,0.5,0.8,1.1,0.8,2.1v3.5h-1.7V20c-0.3,0.6-1,0.9-1.9,0.9c-0.5,0-0.9-0.1-1.2-0.2
				c-0.3-0.2-0.6-0.4-0.8-0.7c-0.2-0.3-0.3-0.6-0.3-1c0-0.6,0.2-1,0.6-1.4s1.1-0.5,2-0.5h1.4c0-0.4-0.1-0.7-0.4-0.9
				c-0.2-0.2-0.6-0.3-1.1-0.3c-0.3,0-0.7,0.1-1,0.2c-0.3,0.1-0.6,0.2-0.8,0.4l-0.6-1.2c0.3-0.2,0.7-0.4,1.2-0.6
				c0.5-0.1,1-0.2,1.5-0.2C228.4,14.5,229.1,14.8,229.6,15.2z M228.1,19.5c0.2-0.1,0.4-0.3,0.5-0.6v-0.6h-1.2
				c-0.7,0-1.1,0.2-1.1,0.7c0,0.2,0.1,0.4,0.3,0.5c0.2,0.1,0.4,0.2,0.7,0.2C227.6,19.7,227.9,19.6,228.1,19.5z"/>
			<path class="st16" d="M235.5,20.5c-0.2,0.1-0.4,0.2-0.6,0.3c-0.3,0.1-0.5,0.1-0.8,0.1c-0.7,0-1.3-0.2-1.7-0.6
				c-0.4-0.4-0.6-0.9-0.6-1.7v-2.5h-1v-1.4h1v-1.5h1.8v1.5h1.5v1.4h-1.5v2.5c0,0.3,0.1,0.5,0.2,0.6c0.1,0.1,0.3,0.2,0.6,0.2
				c0.3,0,0.5-0.1,0.7-0.2L235.5,20.5z"/>
			<path class="st16" d="M236.2,13.5c-0.2-0.2-0.3-0.4-0.3-0.7c0-0.3,0.1-0.5,0.3-0.7s0.5-0.3,0.8-0.3c0.3,0,0.6,0.1,0.8,0.3
				c0.2,0.2,0.3,0.4,0.3,0.7c0,0.3-0.1,0.5-0.3,0.7c-0.2,0.2-0.5,0.3-0.8,0.3C236.6,13.8,236.4,13.7,236.2,13.5z M236.1,14.6h1.8
				v6.2h-1.8V14.6z"/>
			<path class="st16" d="M239.6,20.7c-0.5-0.1-0.9-0.3-1.2-0.5l0.6-1.3c0.3,0.2,0.6,0.3,1,0.4s0.8,0.2,1.1,0.2
				c0.8,0,1.1-0.2,1.1-0.6c0-0.2-0.1-0.3-0.3-0.4s-0.5-0.1-1-0.2c-0.5-0.1-0.9-0.2-1.2-0.3c-0.3-0.1-0.6-0.3-0.9-0.5
				c-0.2-0.3-0.4-0.6-0.4-1.1c0-0.4,0.1-0.7,0.3-1c0.2-0.3,0.6-0.5,1-0.7c0.4-0.2,0.9-0.3,1.5-0.3c0.4,0,0.9,0,1.3,0.1
				c0.4,0.1,0.8,0.2,1.1,0.4l-0.6,1.3c-0.5-0.3-1.1-0.5-1.8-0.5c-0.4,0-0.7,0.1-0.9,0.2c-0.2,0.1-0.3,0.2-0.3,0.4
				c0,0.2,0.1,0.3,0.3,0.4c0.2,0.1,0.5,0.1,1,0.2c0.5,0.1,0.9,0.2,1.2,0.3c0.3,0.1,0.6,0.3,0.8,0.5c0.2,0.3,0.4,0.6,0.4,1.1
				c0,0.4-0.1,0.7-0.3,1c-0.2,0.3-0.6,0.5-1,0.7s-1,0.2-1.6,0.2C240.6,20.9,240.1,20.8,239.6,20.7z"/>
			<path class="st16" d="M248.7,20.5c-0.2,0.1-0.4,0.2-0.6,0.3c-0.3,0.1-0.5,0.1-0.8,0.1c-0.7,0-1.3-0.2-1.7-0.6
				c-0.4-0.4-0.6-0.9-0.6-1.7v-2.5h-1v-1.4h1v-1.5h1.8v1.5h1.5v1.4h-1.5v2.5c0,0.3,0.1,0.5,0.2,0.6c0.1,0.1,0.3,0.2,0.6,0.2
				c0.3,0,0.5-0.1,0.7-0.2L248.7,20.5z"/>
			<path class="st16" d="M249.3,13.5c-0.2-0.2-0.3-0.4-0.3-0.7c0-0.3,0.1-0.5,0.3-0.7s0.5-0.3,0.8-0.3c0.3,0,0.6,0.1,0.8,0.3
				c0.2,0.2,0.3,0.4,0.3,0.7c0,0.3-0.1,0.5-0.3,0.7c-0.2,0.2-0.5,0.3-0.8,0.3C249.8,13.8,249.5,13.7,249.3,13.5z M249.2,14.6h1.8
				v6.2h-1.8V14.6z"/>
			<path class="st16" d="M253.4,20.5c-0.5-0.3-0.9-0.6-1.2-1.1c-0.3-0.5-0.4-1-0.4-1.6c0-0.6,0.1-1.2,0.4-1.6
				c0.3-0.5,0.7-0.9,1.2-1.1c0.5-0.3,1.1-0.4,1.8-0.4c0.6,0,1.2,0.1,1.7,0.4c0.5,0.3,0.8,0.7,1.1,1.2l-1.4,0.7
				c-0.3-0.6-0.8-0.8-1.4-0.8c-0.5,0-0.9,0.2-1.2,0.5c-0.3,0.3-0.5,0.7-0.5,1.3c0,0.5,0.2,0.9,0.5,1.2c0.3,0.3,0.7,0.5,1.2,0.5
				c0.6,0,1.1-0.3,1.4-0.8l1.4,0.8c-0.2,0.5-0.6,0.9-1.1,1.1c-0.5,0.3-1.1,0.4-1.7,0.4C254.5,20.9,254,20.7,253.4,20.5z"/>
			<path class="st16" d="M259.1,20.7c-0.5-0.1-0.9-0.3-1.2-0.5l0.6-1.3c0.3,0.2,0.6,0.3,1,0.4s0.8,0.2,1.1,0.2
				c0.8,0,1.1-0.2,1.1-0.6c0-0.2-0.1-0.3-0.3-0.4s-0.5-0.1-1-0.2c-0.5-0.1-0.9-0.2-1.2-0.3c-0.3-0.1-0.6-0.3-0.9-0.5
				c-0.2-0.3-0.4-0.6-0.4-1.1c0-0.4,0.1-0.7,0.3-1c0.2-0.3,0.6-0.5,1-0.7c0.4-0.2,0.9-0.3,1.5-0.3c0.4,0,0.9,0,1.3,0.1
				c0.4,0.1,0.8,0.2,1.1,0.4l-0.6,1.3c-0.5-0.3-1.1-0.5-1.8-0.5c-0.4,0-0.7,0.1-0.9,0.2c-0.2,0.1-0.3,0.2-0.3,0.4
				c0,0.2,0.1,0.3,0.3,0.4c0.2,0.1,0.5,0.1,1,0.2c0.5,0.1,0.9,0.2,1.2,0.3c0.3,0.1,0.6,0.3,0.8,0.5c0.2,0.3,0.4,0.6,0.4,1.1
				c0,0.4-0.1,0.7-0.3,1c-0.2,0.3-0.6,0.5-1,0.7s-1,0.2-1.6,0.2C260.1,20.9,259.6,20.8,259.1,20.7z"/>
		</g>
		<g>
			<g>
				<circle class="st16" cx="50.4" cy="2" r="1.3"/>
			</g>
			<g>
				<circle class="st16" cx="50.4" cy="19.6" r="1.3"/>
			</g>
			<g>
				<circle class="st16" cx="53.2" cy="15" r="1.5"/>
			</g>
			<g>
				<circle class="st16" cx="53.2" cy="6.5" r="1.5"/>
			</g>
			<g>
				<circle class="st16" cx="56.6" cy="10.7" r="1.7"/>
			</g>
		</g>
	</g>
</g>
<g id="Grid" class="st192">
</g>
<g id="states">
</g>
<g id="Isolation_Mode">
</g>
</svg>
